<svg width="390" height="144" viewBox="0 0 390 144" fill="none" xmlns="http://www.w3.org/2000/svg">
<path d="M50.2716 69.885C41.5309 64.3175 36.7915 56.2725 36.0533 45.75C35.3814 36.2137 37.7686 27.4687 44.4049 20.4037C48.774 15.7537 54.0514 12.8337 60.2372 11.6437C64.8466 10.7587 70.886 11.1187 76.0208 11.1562C76.046 11.1562 76.0709 11.1612 76.0941 11.1708C76.1173 11.1804 76.1384 11.1945 76.1562 11.2123C76.174 11.23 76.1881 11.2511 76.1977 11.2743C76.2073 11.2975 76.2123 11.3224 76.2123 11.3475V23.5312C76.2123 23.5989 76.1854 23.6637 76.1375 23.7116C76.0896 23.7594 76.0247 23.7862 75.957 23.7862C73.1344 23.7787 70.3042 23.7812 67.4665 23.7937C63.7393 23.8087 60.8265 24.3075 58.0264 26.2987C46.5369 34.4662 46.4318 50.7225 57.7374 59.1075C60.8566 61.4175 63.942 61.7475 68.1985 61.7588C70.7984 61.7638 73.4009 61.7687 76.0058 61.7737C76.156 61.7737 76.231 61.8488 76.231 61.9988L76.2198 74.16C76.2198 74.231 76.1914 74.2991 76.1408 74.3496C76.0902 74.4001 76.0215 74.429 75.9495 74.43C73.6749 74.445 70.2141 74.4412 65.5672 74.4187C59.8807 74.3925 55.1137 72.9675 50.2716 69.885Z" fill="#3A3A3A"/>
<path d="M144.298 11.1413H133.18C133.032 11.1413 132.913 11.2605 132.913 11.4075V74.1675C132.913 74.3145 133.032 74.4338 133.18 74.4338H144.298C144.445 74.4338 144.564 74.3145 144.564 74.1675V11.4075C144.564 11.2605 144.445 11.1413 144.298 11.1413Z" fill="#3A3A3A"/>
<path d="M164.383 11.1413H153.122C153.01 11.1413 152.919 11.2319 152.919 11.3438V74.2312C152.919 74.3431 153.01 74.4338 153.122 74.4338H164.383C164.495 74.4338 164.585 74.3431 164.585 74.2312V11.3438C164.585 11.2319 164.495 11.1413 164.383 11.1413Z" fill="#3A3A3A"/>
<path d="M269.549 41.9025C269.389 48.2925 269.379 53.7 269.519 58.125C269.662 62.6888 274.485 61.7287 277.555 61.7812C277.728 61.7838 277.814 61.8712 277.814 62.0437L277.81 74.2463C277.81 74.294 277.791 74.3398 277.758 74.3735C277.724 74.4073 277.678 74.4263 277.63 74.4263C270.694 74.4975 262.192 75.2963 259.159 67.1738C258.281 64.8188 257.838 62.4588 257.83 60.0938C257.785 46.4237 257.784 32.725 257.827 18.9975C257.827 18.9388 257.85 18.8825 257.892 18.8411C257.933 18.7996 257.989 18.7762 258.048 18.7762L269.237 18.75C269.395 18.75 269.474 18.8275 269.474 18.9825V30.1125C269.474 30.375 269.605 30.5075 269.868 30.51L277.623 30.5475C277.75 30.5475 277.814 30.61 277.814 30.735V41.3512C277.814 41.6012 277.689 41.7262 277.439 41.7262L269.755 41.7037C269.702 41.7037 269.651 41.7244 269.612 41.7615C269.573 41.7986 269.551 41.8491 269.549 41.9025Z" fill="#3A3A3A"/>
<path d="M125.241 52.485C125.241 58.3101 122.925 63.8967 118.802 68.0157C114.679 72.1347 109.087 74.4487 103.256 74.4487C97.4258 74.4487 91.834 72.1347 87.7111 68.0157C83.5882 63.8967 81.272 58.3101 81.272 52.485C81.272 46.6598 83.5882 41.0733 87.7111 36.9543C91.834 32.8353 97.4258 30.5212 103.256 30.5212C109.087 30.5212 114.679 32.8353 118.802 36.9543C122.925 41.0733 125.241 46.6598 125.241 52.485ZM113.718 52.485C113.718 49.7131 112.615 47.0548 110.654 45.0948C108.692 43.1349 106.031 42.0337 103.256 42.0337C100.482 42.0337 97.8212 43.1349 95.8593 45.0948C93.8975 47.0548 92.7953 49.7131 92.7953 52.485C92.7953 53.8575 93.0659 55.2165 93.5916 56.4845C94.1174 57.7525 94.8879 58.9047 95.8593 59.8751C96.8307 60.8456 97.9839 61.6155 99.2531 62.1407C100.522 62.6659 101.883 62.9362 103.256 62.9362C104.63 62.9362 105.991 62.6659 107.26 62.1407C108.529 61.6155 109.682 60.8456 110.654 59.8751C111.625 58.9047 112.395 57.7525 112.921 56.4845C113.447 55.2165 113.718 53.8575 113.718 52.485Z" fill="#3A3A3A"/>
<path d="M200 42.6525C193.807 38.9662 185.695 41.6625 183.229 48.4725C179.521 58.7175 190.552 67.9012 199.932 62.34C202.795 60.645 204.605 58.04 205.364 54.525C205.379 54.4568 205.419 54.3967 205.475 54.3559C205.532 54.3151 205.602 54.2965 205.671 54.3037L215.682 55.3762C215.795 55.3887 215.844 55.4512 215.828 55.5637C214.567 65.3175 206.782 72.7725 197.376 74.2275C190.233 75.3375 182.981 72.7012 178.057 67.4737C169.093 57.96 170.553 42.615 180.973 34.8562C192.418 26.3362 208.126 30.8025 214.196 43.4925C214.22 43.5426 214.225 43.5997 214.211 43.6533C214.196 43.707 214.163 43.7537 214.117 43.785L192.602 58.3912C192.581 58.4054 192.557 58.4148 192.532 58.4187C192.508 58.4225 192.482 58.4208 192.458 58.4136C192.434 58.4064 192.412 58.394 192.393 58.3771C192.374 58.3603 192.36 58.3395 192.35 58.3162L189.235 50.64C189.203 50.5624 189.198 50.4764 189.222 50.3964C189.246 50.3164 189.297 50.2475 189.366 50.2012L200.007 42.9112C200.029 42.8967 200.046 42.8771 200.058 42.8541C200.069 42.8311 200.075 42.8056 200.074 42.7798C200.074 42.7541 200.066 42.7289 200.053 42.7066C200.04 42.6844 200.022 42.6658 200 42.6525Z" fill="#3A3A3A"/>
<path d="M233.609 51.5813C233.091 56.6588 236.379 60.8813 241.649 61.6163C244.753 62.0513 248.281 61.7513 251.453 61.7775C251.505 61.7785 251.555 61.7995 251.591 61.8359C251.628 61.8724 251.648 61.9214 251.648 61.9725L251.645 74.1525C251.645 74.2975 251.572 74.3725 251.427 74.3775C246.78 74.53 243.321 74.515 241.048 74.3325C234.605 73.815 229.574 71.03 225.956 65.9775C219.721 57.27 220.686 43.5338 228.388 36.0788C234.758 29.9138 243.117 30.2663 251.453 30.5625C251.504 30.5644 251.551 30.5854 251.586 30.6211C251.621 30.6568 251.641 30.7043 251.641 30.7538V42.93C251.641 42.9653 251.634 43.0002 251.62 43.0328C251.606 43.0653 251.586 43.0948 251.56 43.1196C251.535 43.1444 251.505 43.1639 251.471 43.1771C251.438 43.1902 251.403 43.1968 251.367 43.1963C248.992 43.1838 246.582 43.1863 244.138 43.2038C238.624 43.2413 234.206 45.735 233.609 51.5813Z" fill="#3A3A3A"/>
<path d="M326.362 52.485C326.362 58.3101 324.046 63.8967 319.923 68.0157C315.8 72.1347 310.209 74.4487 304.378 74.4487C298.547 74.4487 292.955 72.1347 288.833 68.0157C284.71 63.8967 282.394 58.3101 282.394 52.485C282.394 46.6598 284.71 41.0733 288.833 36.9543C292.955 32.8353 298.547 30.5212 304.378 30.5212C310.209 30.5212 315.8 32.8353 319.923 36.9543C324.046 41.0733 326.362 46.6598 326.362 52.485ZM314.839 52.485C314.839 49.7131 313.737 47.0548 311.775 45.0948C309.813 43.1349 307.152 42.0337 304.378 42.0337C301.603 42.0337 298.943 43.1349 296.981 45.0948C295.019 47.0548 293.917 49.7131 293.917 52.485C293.917 53.8575 294.187 55.2165 294.713 56.4845C295.239 57.7525 296.009 58.9047 296.981 59.8751C297.952 60.8456 299.105 61.6155 300.375 62.1407C301.644 62.6659 303.004 62.9362 304.378 62.9362C305.752 62.9362 307.112 62.6659 308.381 62.1407C309.65 61.6155 310.804 60.8456 311.775 59.8751C312.746 58.9047 313.517 57.7525 314.043 56.4845C314.568 55.2165 314.839 53.8575 314.839 52.485Z" fill="#3A3A3A"/>
<path d="M345.952 38.4862C347.899 32.5012 352.107 29.8738 358.575 30.6038C358.668 30.6138 358.714 30.665 358.714 30.7575V42.3712C358.714 42.416 358.696 42.4589 358.665 42.4906C358.633 42.5222 358.59 42.54 358.545 42.54C356.849 42.5625 354.949 42.3975 353.414 42.8363C350.224 43.7463 348.139 45.6625 347.161 48.585C346.765 49.765 346.561 51.8363 346.549 54.7988C346.526 61.2763 346.519 67.7562 346.526 74.2387C346.526 74.2925 346.505 74.344 346.467 74.3819C346.429 74.4199 346.377 74.4412 346.324 74.4412L334.316 74.4375C334.128 74.4375 334.035 74.3437 334.035 74.1562L334.038 30.7275C334.038 30.5925 334.107 30.5237 334.245 30.5212L345.412 30.5025C345.592 30.5025 345.682 30.5925 345.682 30.7725L345.663 38.4413C345.662 38.4762 345.674 38.5099 345.697 38.5364C345.719 38.5629 345.751 38.5804 345.785 38.5858C345.82 38.5912 345.856 38.5841 345.886 38.5659C345.917 38.5477 345.94 38.5195 345.952 38.4862Z" fill="#3A3A3A"/>
<path d="M95.1263 122.516C94.6083 119.719 90.4156 121.841 92.176 123.776C92.5739 124.219 93.6211 124.451 94.1842 124.654C95.7419 125.213 96.7703 126.161 96.3387 127.973C95.603 131.048 91.0274 130.83 90.6183 127.485C90.6129 127.444 90.6165 127.401 90.6288 127.362C90.6411 127.322 90.6618 127.285 90.6896 127.253C90.7173 127.222 90.7514 127.197 90.7896 127.18C90.8278 127.163 90.8693 127.155 90.9111 127.155L91.0349 127.159C91.1595 127.16 91.2804 127.201 91.3792 127.277C91.4781 127.353 91.5496 127.459 91.583 127.579C92.5476 130.995 97.003 128.299 94.9311 126.09C94.293 125.407 92.4763 125.276 91.7106 124.672C90.7272 123.892 90.6633 122.445 91.2789 121.406C92.4313 119.479 95.8582 120.064 96.1623 122.505C96.1973 122.775 96.0784 122.921 95.8057 122.944L95.7006 122.951C95.3778 122.979 95.1863 122.834 95.1263 122.516Z" fill="#383838"/>
<path d="M152.57 122.974L153.753 123.131C153.806 123.139 153.854 123.166 153.889 123.207C153.924 123.248 153.943 123.3 153.942 123.354C153.941 123.408 153.92 123.459 153.884 123.499C153.848 123.539 153.799 123.564 153.745 123.57L152.473 123.709C152.422 123.715 152.375 123.739 152.341 123.777C152.306 123.815 152.286 123.864 152.285 123.915L152.191 129.731C152.19 129.795 152.167 129.856 152.125 129.905C152.083 129.953 152.026 129.986 151.962 129.998L151.823 130.024C151.806 130.026 151.788 130.026 151.771 130.021C151.754 130.016 151.738 130.008 151.725 129.997C151.711 129.986 151.7 129.973 151.693 129.957C151.685 129.942 151.681 129.925 151.681 129.908L151.504 123.915C151.502 123.788 151.437 123.719 151.309 123.709L150.363 123.638C150.221 123.628 150.148 123.551 150.145 123.409L150.142 123.278C150.142 123.216 150.165 123.156 150.207 123.112C150.249 123.067 150.306 123.04 150.367 123.038L151.557 122.974C151.585 122.972 151.612 122.964 151.637 122.95C151.662 122.937 151.683 122.918 151.699 122.894C151.715 122.871 151.726 122.845 151.731 122.817C151.735 122.789 151.734 122.761 151.726 122.734C151.503 121.984 151.496 121.225 151.703 120.458C151.714 120.421 151.735 120.389 151.765 120.365C151.794 120.342 151.83 120.328 151.868 120.325C151.906 120.323 151.943 120.332 151.976 120.352C152.008 120.371 152.033 120.4 152.049 120.435C152.331 121.118 152.403 121.82 152.262 122.543C152.253 122.591 152.253 122.641 152.264 122.69C152.274 122.738 152.294 122.784 152.323 122.825C152.352 122.865 152.389 122.899 152.431 122.925C152.474 122.95 152.521 122.967 152.57 122.974Z" fill="#383838"/>
<path d="M241.131 129.225H244.764C244.818 129.225 244.869 129.246 244.906 129.283C244.944 129.32 244.966 129.371 244.967 129.424L244.978 129.919C244.979 129.946 244.974 129.972 244.964 129.997C244.954 130.022 244.939 130.045 244.92 130.064C244.901 130.084 244.879 130.099 244.854 130.109C244.829 130.12 244.803 130.125 244.776 130.125L240.204 130.14C240.15 130.14 240.099 130.119 240.061 130.081C240.023 130.043 240.001 129.991 240.001 129.937L239.982 120.679C239.982 120.65 239.988 120.623 239.999 120.597C240.011 120.571 240.027 120.548 240.048 120.528C240.069 120.509 240.094 120.495 240.121 120.486C240.147 120.477 240.176 120.474 240.204 120.476L240.718 120.525C240.768 120.53 240.814 120.552 240.848 120.589C240.882 120.626 240.901 120.674 240.902 120.724L240.928 129.022C240.928 129.076 240.95 129.128 240.988 129.166C241.026 129.204 241.077 129.225 241.131 129.225Z" fill="#383838"/>
<path d="M171.27 125.914L171.248 129.034C171.247 129.06 171.252 129.086 171.262 129.11C171.272 129.135 171.286 129.157 171.305 129.175C171.324 129.194 171.346 129.209 171.37 129.218C171.394 129.228 171.42 129.233 171.447 129.232L175.354 129.214C175.399 129.214 175.442 129.229 175.477 129.257C175.512 129.285 175.536 129.324 175.546 129.368L175.666 129.896C175.672 129.925 175.672 129.954 175.665 129.983C175.658 130.011 175.645 130.038 175.627 130.06C175.608 130.083 175.585 130.101 175.559 130.114C175.532 130.126 175.503 130.133 175.474 130.132H170.561C170.509 130.132 170.46 130.112 170.423 130.075C170.386 130.039 170.366 129.989 170.366 129.937L170.343 120.81C170.343 120.784 170.348 120.759 170.358 120.735C170.368 120.712 170.382 120.69 170.4 120.672C170.419 120.654 170.44 120.64 170.464 120.63C170.487 120.62 170.513 120.615 170.538 120.615L175.399 120.585C175.425 120.584 175.452 120.589 175.476 120.599C175.5 120.609 175.522 120.624 175.541 120.642C175.56 120.661 175.574 120.683 175.584 120.707C175.594 120.731 175.599 120.758 175.598 120.784L175.594 121.32C175.594 121.372 175.574 121.421 175.537 121.458C175.501 121.494 175.451 121.515 175.399 121.515L171.454 121.477C171.428 121.477 171.402 121.482 171.378 121.492C171.353 121.501 171.331 121.516 171.312 121.535C171.294 121.553 171.279 121.575 171.269 121.6C171.26 121.624 171.255 121.65 171.255 121.676L171.274 124.703C171.275 124.754 171.296 124.802 171.333 124.838C171.369 124.874 171.418 124.894 171.469 124.894L175.268 124.849C175.318 124.849 175.366 124.868 175.402 124.902C175.438 124.936 175.46 124.983 175.463 125.033L175.486 125.505C175.487 125.531 175.482 125.557 175.473 125.581C175.464 125.605 175.45 125.628 175.432 125.646C175.415 125.665 175.393 125.68 175.369 125.691C175.346 125.701 175.32 125.707 175.294 125.707L171.462 125.723C171.411 125.723 171.363 125.744 171.327 125.78C171.292 125.815 171.271 125.863 171.27 125.914Z" fill="#383838"/>
<path d="M178.898 120.529H178.747C178.517 120.529 178.331 120.715 178.331 120.945V129.757C178.331 129.987 178.517 130.174 178.747 130.174H178.898C179.128 130.174 179.314 129.987 179.314 129.757V120.945C179.314 120.715 179.128 120.529 178.898 120.529Z" fill="#383838"/>
<path d="M221.755 122.951L221.808 120.686C221.809 120.656 221.821 120.627 221.841 120.605C221.862 120.583 221.89 120.569 221.92 120.566L222.442 120.521C222.459 120.52 222.476 120.522 222.492 120.527C222.508 120.532 222.523 120.541 222.536 120.552C222.548 120.563 222.559 120.577 222.566 120.592C222.573 120.608 222.577 120.624 222.577 120.641L222.66 123C222.661 123.029 222.673 123.057 222.693 123.078C222.713 123.099 222.74 123.113 222.769 123.116L224.113 123.281C224.132 123.284 224.15 123.291 224.166 123.301C224.182 123.312 224.195 123.326 224.205 123.343C224.214 123.36 224.219 123.379 224.22 123.398C224.221 123.417 224.218 123.436 224.21 123.454L224.067 123.776C224.057 123.798 224.042 123.816 224.022 123.828C224.002 123.841 223.978 123.848 223.955 123.848L222.784 123.87C222.767 123.87 222.751 123.873 222.736 123.879C222.721 123.886 222.708 123.895 222.696 123.906C222.685 123.918 222.676 123.931 222.669 123.946C222.663 123.961 222.66 123.977 222.66 123.994L222.547 130.144C222.547 130.161 222.544 130.177 222.537 130.193C222.531 130.208 222.521 130.222 222.508 130.234C222.496 130.246 222.482 130.255 222.466 130.26C222.45 130.266 222.433 130.269 222.416 130.268L221.932 130.249C221.9 130.248 221.87 130.235 221.848 130.213C221.825 130.19 221.813 130.16 221.812 130.129L221.688 124.027C221.687 123.996 221.674 123.966 221.652 123.944C221.629 123.921 221.599 123.908 221.568 123.908L220.31 123.855C220.278 123.853 220.248 123.839 220.226 123.815C220.204 123.791 220.193 123.76 220.194 123.727L220.213 123.326C220.214 123.297 220.226 123.27 220.246 123.248C220.266 123.227 220.293 123.213 220.321 123.21L221.643 123.071C221.673 123.069 221.701 123.055 221.722 123.033C221.743 123.011 221.754 122.982 221.755 122.951Z" fill="#383838"/>
<path d="M278.164 120.628L277.976 120.632C277.767 120.635 277.6 120.808 277.604 121.017L277.619 121.917C277.623 122.126 277.796 122.293 278.005 122.289L278.193 122.286C278.402 122.282 278.569 122.11 278.565 121.9L278.549 121.001C278.546 120.791 278.373 120.625 278.164 120.628Z" fill="#383838"/>
<path d="M109.956 123.746C111.552 121.864 114.573 122.595 114.885 125.186C114.97 125.876 114.976 127.346 114.904 129.596C114.894 129.876 114.747 130.021 114.464 130.031L114.344 130.035C114.297 130.036 114.249 130.028 114.204 130.01C114.16 129.993 114.119 129.967 114.085 129.934C114.05 129.901 114.023 129.861 114.003 129.817C113.984 129.774 113.974 129.727 113.973 129.679L113.901 125.085C113.895 124.719 113.75 124.368 113.495 124.104C113.241 123.839 112.895 123.681 112.528 123.66L112.051 123.63C111.81 123.616 111.568 123.652 111.341 123.734C111.114 123.817 110.906 123.945 110.73 124.11C110.553 124.276 110.413 124.476 110.316 124.697C110.219 124.919 110.168 125.158 110.167 125.4L110.137 129.75C110.136 129.788 110.128 129.826 110.113 129.861C110.098 129.895 110.076 129.927 110.049 129.953C110.022 129.979 109.989 130 109.954 130.013C109.919 130.027 109.881 130.033 109.844 130.031L109.705 130.027C109.59 130.023 109.481 129.974 109.401 129.892C109.321 129.81 109.275 129.7 109.273 129.585L109.221 125.104C109.215 124.743 109.075 124.397 108.828 124.135C108.581 123.872 108.244 123.71 107.885 123.682L107.321 123.641C107.087 123.623 106.851 123.654 106.628 123.731C106.406 123.808 106.202 123.931 106.028 124.09C105.855 124.25 105.717 124.444 105.621 124.659C105.526 124.875 105.476 125.108 105.475 125.344L105.445 129.604C105.444 129.716 105.4 129.823 105.322 129.904C105.245 129.984 105.139 130.031 105.028 130.035L104.9 130.042C104.851 130.045 104.801 130.037 104.755 130.019C104.708 130.001 104.665 129.975 104.629 129.941C104.593 129.906 104.564 129.865 104.545 129.819C104.525 129.774 104.514 129.725 104.514 129.675L104.503 123.079C104.503 123.028 104.518 122.979 104.547 122.937C104.575 122.895 104.615 122.862 104.662 122.842C104.708 122.823 104.76 122.817 104.81 122.827C104.859 122.836 104.905 122.86 104.942 122.895C105.41 123.35 105.905 123.364 106.428 122.936C106.495 122.88 106.575 122.841 106.661 122.824C107.844 122.574 108.82 122.882 109.589 123.75C109.711 123.89 109.834 123.889 109.956 123.746Z" fill="#383838"/>
<path d="M129.741 123.652C129.736 123.26 129.911 123.001 130.267 122.876C130.315 122.86 130.367 122.855 130.418 122.862C130.469 122.869 130.517 122.889 130.559 122.918C130.601 122.948 130.635 122.987 130.658 123.033C130.682 123.078 130.695 123.129 130.695 123.18L130.691 129.746C130.69 129.807 130.673 129.867 130.641 129.919C130.608 129.971 130.562 130.013 130.508 130.041C130.453 130.068 130.392 130.079 130.332 130.074C130.271 130.068 130.214 130.046 130.165 130.009C129.868 129.784 129.731 129.481 129.756 129.101C129.771 128.869 129.699 128.837 129.539 129.007C127.403 131.28 123.822 129.881 123.312 127.057C122.651 123.431 126.795 121.507 129.531 123.754C129.671 123.869 129.741 123.835 129.741 123.652ZM129.786 126.409C129.786 125.676 129.495 124.973 128.976 124.454C128.457 123.936 127.754 123.645 127.02 123.645C126.286 123.645 125.583 123.936 125.064 124.454C124.545 124.973 124.254 125.676 124.254 126.409C124.254 127.142 124.545 127.845 125.064 128.363C125.583 128.881 126.286 129.172 127.02 129.172C127.754 129.172 128.457 128.881 128.976 128.363C129.495 127.845 129.786 127.142 129.786 126.409Z" fill="#383838"/>
<path d="M140.645 123.315L141.982 122.741C142.022 122.724 142.066 122.716 142.11 122.718C142.154 122.72 142.197 122.733 142.235 122.754C142.274 122.776 142.307 122.807 142.332 122.843C142.357 122.88 142.373 122.922 142.379 122.966L142.394 123.098C142.409 123.203 142.39 123.311 142.338 123.404C142.287 123.497 142.206 123.57 142.109 123.611C140.848 124.166 140.262 124.463 140.27 126C140.277 127.315 140.261 128.536 140.221 129.664C140.214 129.924 140.079 130.05 139.816 130.043H139.688C139.438 130.035 139.313 129.905 139.313 129.653V123.064C139.313 123.02 139.325 122.977 139.347 122.939C139.369 122.902 139.401 122.871 139.439 122.849C139.477 122.828 139.52 122.818 139.563 122.819C139.606 122.821 139.648 122.834 139.684 122.858L140.368 123.293C140.458 123.348 140.55 123.355 140.645 123.315Z" fill="#383838"/>
<path d="M182.895 127.166C183.408 128.886 184.515 129.584 186.217 129.259C187.125 129.086 187.737 128.31 188.379 127.68C188.435 127.626 188.507 127.592 188.585 127.585C188.663 127.578 188.74 127.598 188.805 127.642C188.869 127.686 188.917 127.75 188.939 127.825C188.961 127.899 188.957 127.979 188.927 128.051C188.101 130.012 185.958 130.747 184.044 129.971C181.536 128.951 181.247 125.212 183.315 123.63C185.8 121.729 189.077 123.54 189.235 126.574C189.237 126.62 189.23 126.666 189.214 126.71C189.198 126.754 189.173 126.793 189.14 126.827C189.108 126.861 189.069 126.888 189.026 126.906C188.983 126.924 188.936 126.934 188.889 126.934L183.101 126.892C182.909 126.89 182.84 126.981 182.895 127.166ZM183.019 126.03H188.139C188.156 126.03 188.172 126.023 188.184 126.011C188.196 125.999 188.203 125.983 188.203 125.966V125.947C188.203 125.387 187.931 124.849 187.447 124.452C186.964 124.055 186.308 123.832 185.624 123.832H185.534C184.85 123.832 184.194 124.055 183.71 124.452C183.227 124.849 182.955 125.387 182.955 125.947V125.966C182.955 125.983 182.962 125.999 182.974 126.011C182.986 126.023 183.002 126.03 183.019 126.03Z" fill="#383838"/>
<path d="M197.703 129.112C195.135 131.914 191.153 129.514 191.633 125.91C192.035 122.876 195.597 122.01 197.669 123.997C197.777 124.1 197.844 124.079 197.872 123.934L197.969 123.394C197.985 123.311 198.03 123.236 198.095 123.181C198.159 123.126 198.241 123.096 198.326 123.094L198.532 123.09C198.727 123.085 198.826 123.18 198.829 123.375C198.871 126.575 198.863 128.73 198.802 129.84C198.725 131.372 197.915 132.326 196.374 132.701C194.612 133.134 193.225 132.636 192.211 131.209C191.853 130.704 191.838 130.365 192.166 130.192C192.221 130.163 192.285 130.152 192.347 130.162C192.409 130.172 192.465 130.203 192.508 130.249C192.796 130.554 193.086 130.852 193.379 131.145C195.132 132.915 198.074 131.719 197.883 129.176C197.873 129.014 197.813 128.992 197.703 129.112ZM195.108 129.359C195.461 129.37 195.814 129.309 196.145 129.179C196.476 129.049 196.78 128.853 197.038 128.602C197.296 128.351 197.504 128.049 197.65 127.715C197.796 127.381 197.878 127.021 197.889 126.655C197.912 125.915 197.651 125.197 197.162 124.658C196.673 124.119 195.997 123.804 195.283 123.781C194.929 123.77 194.577 123.831 194.246 123.961C193.914 124.091 193.611 124.287 193.353 124.538C193.094 124.789 192.886 125.091 192.74 125.425C192.594 125.759 192.513 126.119 192.502 126.485C192.478 127.225 192.74 127.943 193.229 128.482C193.717 129.021 194.393 129.336 195.108 129.359Z" fill="#383838"/>
<path d="M207.909 123.847L208.025 123.341C208.049 123.24 208.109 123.151 208.194 123.091C208.279 123.032 208.384 123.005 208.487 123.017C208.59 123.029 208.686 123.079 208.755 123.157C208.824 123.234 208.862 123.335 208.862 123.439L208.869 129.84C208.869 130.03 208.774 130.131 208.584 130.144L208.427 130.155C208.353 130.16 208.279 130.139 208.219 130.096C208.159 130.053 208.115 129.99 208.096 129.919L207.969 129.45C207.926 129.282 207.833 129.247 207.691 129.345C205.939 130.57 204.35 130.63 202.924 129.525C199.024 126.506 203.333 120.574 207.725 123.911C207.82 123.984 207.881 123.962 207.909 123.847ZM207.961 126.577C207.961 125.844 207.669 125.14 207.15 124.621C206.63 124.102 205.926 123.81 205.191 123.81C204.456 123.81 203.752 124.102 203.232 124.621C202.713 125.14 202.421 125.844 202.421 126.577C202.421 127.311 202.713 128.015 203.232 128.534C203.752 129.053 204.456 129.345 205.191 129.345C205.926 129.345 206.63 129.053 207.15 128.534C207.669 128.015 207.961 127.311 207.961 126.577Z" fill="#383838"/>
<path d="M213.299 123.439C215.232 122.231 217.671 123.116 217.923 125.539C218.081 127.051 218.101 128.52 217.983 129.945C217.977 130.02 217.943 130.091 217.886 130.141C217.83 130.192 217.756 130.22 217.679 130.219L217.42 130.215C217.376 130.215 217.333 130.205 217.293 130.188C217.253 130.171 217.217 130.146 217.186 130.114C217.156 130.083 217.132 130.046 217.116 130.005C217.1 129.965 217.092 129.921 217.093 129.878C217.142 128.033 217.743 122.876 214.218 123.877C212.698 124.312 212.796 125.55 212.769 127.103C212.752 128.013 212.739 128.903 212.732 129.773C212.731 129.874 212.689 129.972 212.616 130.043C212.543 130.115 212.444 130.155 212.341 130.155H212.112C212.022 130.155 211.935 130.119 211.871 130.056C211.807 129.993 211.771 129.907 211.771 129.817L211.767 123.244C211.767 123.203 211.778 123.162 211.798 123.127C211.818 123.091 211.847 123.061 211.882 123.039C211.917 123.018 211.957 123.006 211.998 123.004C212.039 123.003 212.08 123.011 212.116 123.03L212.95 123.454C213.07 123.514 213.186 123.509 213.299 123.439Z" fill="#383838"/>
<path d="M288.564 126.596C288.564 127.579 288.174 128.521 287.478 129.216C286.783 129.911 285.839 130.301 284.856 130.301C283.872 130.301 282.929 129.911 282.234 129.216C281.538 128.521 281.147 127.579 281.147 126.596C281.147 125.614 281.538 124.671 282.234 123.976C282.929 123.282 283.872 122.891 284.856 122.891C285.839 122.891 286.783 123.282 287.478 123.976C288.174 124.671 288.564 125.614 288.564 126.596ZM285.085 129.369C285.802 129.31 286.464 128.96 286.928 128.396C287.391 127.831 287.618 127.099 287.557 126.359C287.527 125.993 287.427 125.636 287.263 125.309C287.1 124.982 286.876 124.691 286.603 124.453C286.331 124.215 286.017 124.034 285.677 123.92C285.338 123.807 284.981 123.764 284.626 123.793C283.91 123.852 283.247 124.202 282.784 124.767C282.32 125.331 282.094 126.064 282.155 126.803C282.185 127.169 282.285 127.526 282.448 127.853C282.612 128.18 282.836 128.471 283.108 128.71C283.38 128.948 283.695 129.129 284.034 129.242C284.373 129.355 284.731 129.398 285.085 129.369Z" fill="#383838"/>
<path d="M303.064 124.706C302.595 123.574 301.12 123.349 300.872 124.703C300.841 124.877 300.868 125.058 300.949 125.216C301.031 125.375 301.162 125.502 301.323 125.58L303.522 126.641C303.593 126.675 303.651 126.73 303.687 126.799C305.253 129.893 301.161 131.752 299.78 128.925C299.647 128.65 299.665 128.388 299.832 128.138L299.941 127.973C299.966 127.936 300 127.907 300.04 127.888C300.079 127.869 300.124 127.861 300.168 127.865C300.211 127.87 300.253 127.886 300.289 127.912C300.324 127.938 300.352 127.973 300.369 128.014C300.936 129.379 302.527 130.095 303.079 128.441C303.751 126.428 299.266 127.327 299.964 124.38C300.497 122.122 304.108 122.771 303.815 124.616C303.801 124.7 303.76 124.777 303.698 124.836C303.637 124.894 303.558 124.932 303.473 124.942C303.389 124.952 303.303 124.934 303.23 124.892C303.156 124.849 303.098 124.784 303.064 124.706Z" fill="#383838"/>
<path d="M258.033 127.545L256.355 130.039C256.339 130.063 256.317 130.084 256.292 130.1C256.267 130.115 256.238 130.125 256.209 130.129L255.53 130.204C255.49 130.208 255.451 130.201 255.415 130.183C255.38 130.165 255.35 130.138 255.33 130.104C255.31 130.07 255.3 130.031 255.302 129.991C255.303 129.952 255.316 129.914 255.338 129.881L257.571 126.615C257.595 126.58 257.607 126.539 257.607 126.496C257.606 126.454 257.592 126.413 257.568 126.379L255.428 123.401C255.406 123.37 255.392 123.333 255.39 123.294C255.387 123.256 255.396 123.217 255.414 123.183C255.433 123.149 255.46 123.121 255.494 123.102C255.528 123.083 255.566 123.073 255.605 123.075L256.246 123.109C256.278 123.11 256.308 123.119 256.335 123.134C256.362 123.149 256.386 123.17 256.404 123.195L258.026 125.527C258.045 125.555 258.07 125.578 258.1 125.594C258.13 125.61 258.163 125.618 258.196 125.618C258.23 125.618 258.263 125.61 258.293 125.594C258.323 125.578 258.348 125.555 258.367 125.527L259.925 123.244C259.941 123.221 259.961 123.202 259.984 123.187C260.007 123.172 260.033 123.162 260.06 123.158L260.803 123.019C260.844 123.011 260.886 123.016 260.923 123.032C260.961 123.048 260.993 123.076 261.016 123.11C261.038 123.145 261.049 123.185 261.048 123.227C261.047 123.268 261.034 123.308 261.01 123.341L258.825 126.375C258.8 126.409 258.787 126.45 258.786 126.493C258.785 126.535 258.798 126.576 258.821 126.611L261.017 129.851C261.039 129.883 261.052 129.921 261.053 129.959C261.055 129.998 261.046 130.036 261.026 130.07C261.007 130.104 260.979 130.131 260.945 130.15C260.911 130.168 260.872 130.176 260.833 130.174L260.184 130.14C260.152 130.138 260.12 130.129 260.092 130.112C260.064 130.096 260.04 130.073 260.022 130.046L258.375 127.545C258.356 127.517 258.33 127.494 258.301 127.479C258.271 127.463 258.238 127.455 258.204 127.455C258.17 127.455 258.137 127.463 258.107 127.479C258.077 127.494 258.052 127.517 258.033 127.545Z" fill="#383838"/>
<path d="M273.783 123.476L275.029 122.918C275.072 122.898 275.118 122.889 275.165 122.891C275.212 122.892 275.257 122.904 275.298 122.926C275.339 122.948 275.375 122.979 275.401 123.016C275.428 123.054 275.446 123.097 275.453 123.143L275.487 123.349C275.507 123.466 275.481 123.585 275.414 123.683C275.348 123.78 275.246 123.847 275.13 123.87C273.738 124.144 273.404 125.055 273.415 126.424C273.423 127.614 273.41 128.744 273.378 129.814C273.37 130.039 273.255 130.155 273.032 130.163L272.871 130.166C272.601 130.176 272.464 130.045 272.462 129.773L272.458 123.229C272.458 123.183 272.471 123.139 272.494 123.1C272.517 123.061 272.55 123.029 272.59 123.007C272.63 122.986 272.674 122.975 272.719 122.977C272.764 122.979 272.807 122.994 272.845 123.019L273.483 123.45C273.578 123.515 273.678 123.524 273.783 123.476Z" fill="#383838"/>
<path d="M278.108 123.049L278.048 123.049C277.806 123.049 277.609 123.246 277.61 123.488L277.621 129.736C277.621 129.978 277.818 130.174 278.061 130.174L278.121 130.174C278.363 130.173 278.56 129.976 278.559 129.734L278.548 123.487C278.548 123.244 278.351 123.048 278.108 123.049Z" fill="#383838"/>
<path d="M251.84 129.551C249.798 131.062 246.911 130.219 246.863 127.402C246.84 126.012 246.835 124.709 246.848 123.491C246.848 123.385 246.89 123.282 246.964 123.206C247.038 123.129 247.139 123.084 247.246 123.079L247.426 123.071C247.471 123.07 247.515 123.077 247.557 123.094C247.599 123.11 247.637 123.135 247.669 123.166C247.701 123.198 247.726 123.236 247.743 123.277C247.76 123.319 247.768 123.364 247.767 123.409C247.715 125.617 247.099 129.892 250.32 129.326C252.714 128.91 252.091 125.269 252.084 123.51C252.084 123.237 252.22 123.094 252.493 123.079L252.684 123.067C252.729 123.064 252.773 123.071 252.815 123.086C252.857 123.101 252.895 123.124 252.927 123.155C252.96 123.185 252.985 123.222 253.003 123.263C253.021 123.305 253.03 123.349 253.03 123.394L253.037 129.915C253.037 130.05 252.97 130.126 252.834 130.144C252.452 130.191 252.21 130.025 252.11 129.645C252.065 129.48 251.975 129.449 251.84 129.551Z" fill="#383838"/>
<path d="M268.295 129.615C266.516 130.875 264.129 130.41 263.468 128.16C263.231 127.36 263.185 125.79 263.333 123.45C263.339 123.35 263.383 123.255 263.456 123.186C263.53 123.117 263.626 123.079 263.727 123.079L264.02 123.075C264.255 123.075 264.372 123.193 264.369 123.428C264.347 124.645 264.348 125.889 264.373 127.159C264.399 128.561 265.09 129.424 266.542 129.375C269.264 129.281 268.592 125.198 268.562 123.491C268.559 123.244 268.681 123.113 268.926 123.098L269.166 123.083C269.424 123.065 269.553 123.185 269.553 123.443L269.564 129.863C269.564 130.048 269.471 130.14 269.286 130.14C268.983 130.143 268.773 130.001 268.656 129.716C268.642 129.684 268.622 129.654 268.595 129.631C268.569 129.607 268.537 129.59 268.502 129.58C268.468 129.57 268.431 129.569 268.395 129.575C268.36 129.581 268.325 129.594 268.295 129.615Z" fill="#383838"/>
<path d="M296.177 129.536C295.812 129.72 295.478 130.024 295.092 130.118C290.344 131.314 291.166 126.15 291.139 123.42C291.138 123.337 291.168 123.257 291.224 123.195C291.279 123.134 291.356 123.095 291.44 123.086L291.714 123.056C291.759 123.052 291.805 123.057 291.848 123.072C291.892 123.086 291.932 123.109 291.966 123.139C291.999 123.17 292.027 123.206 292.045 123.248C292.064 123.289 292.074 123.334 292.074 123.379C292.084 124.614 292.089 125.955 292.089 127.403C292.089 128.678 293.264 129.491 294.487 129.349C297.077 129.041 296.402 125.213 296.39 123.48C296.388 123.23 296.511 123.098 296.758 123.083L296.942 123.071C296.993 123.068 297.045 123.076 297.093 123.093C297.141 123.11 297.185 123.137 297.222 123.172C297.26 123.207 297.289 123.248 297.31 123.295C297.33 123.342 297.34 123.392 297.34 123.443L297.336 129.923C297.336 130.063 297.266 130.138 297.126 130.148C296.736 130.175 296.497 130.008 296.409 129.645C296.377 129.51 296.299 129.474 296.177 129.536Z" fill="#383838"/>
<path d="M161.714 129.253C161.708 129.68 161.88 130.028 162.097 130.031C162.315 130.034 162.496 129.691 162.502 129.264C162.508 128.838 162.336 128.489 162.119 128.486C161.901 128.483 161.72 128.827 161.714 129.253Z" fill="#383838"/>
<path d="M232.228 129.254C232.222 129.621 232.352 129.92 232.517 129.922C232.683 129.925 232.822 129.63 232.828 129.263C232.834 128.897 232.704 128.598 232.538 128.595C232.373 128.592 232.233 128.888 232.228 129.254Z" fill="#383838"/>
<path d="M49.7048 89.1225C49.6298 89.115 49.5535 89.1113 49.4759 89.1113C49.4709 89.1113 49.4684 89.1113 49.4684 89.1113C49.4684 89.1138 49.4684 89.115 49.4684 89.115C49.4684 89.12 49.4709 89.1225 49.4759 89.1225C83.3978 89.1175 117.318 89.1125 151.238 89.1075C154.02 89.1075 156.521 89.8625 158.741 91.3725C159.865 92.135 161.206 93.5063 162.765 95.4863C165.816 99.36 168.436 103.905 173.695 105.442C174.971 105.815 177.032 106.004 179.877 106.009C191.108 106.029 202.338 106.03 213.569 106.013C217.187 106.008 219.655 105.811 220.971 105.424C229.762 102.829 230.745 92.2312 239.494 89.6887C240.833 89.3012 243.288 89.1075 246.859 89.1075C279.552 89.1075 312.243 89.1112 344.931 89.1187C344.969 89.1187 344.989 89.1362 344.991 89.1712V89.175C344.991 89.2125 344.974 89.2325 344.939 89.235C313.064 91.525 281.187 93.83 249.31 96.15C246.587 96.3475 244.608 96.6738 243.372 97.1288C235.647 99.9638 234.517 109.567 226.293 111.967C224.97 112.355 222.52 112.549 218.944 112.549C204.57 112.549 190.197 112.549 175.823 112.549C172.167 112.549 169.684 112.36 168.373 111.982C160.032 109.571 158.917 99.72 150.983 97.0275C149.784 96.62 147.488 96.2938 144.095 96.0488C116.266 94.0538 88.4375 91.86 60.5976 90.0413C56.9617 89.8038 53.3308 89.4975 49.7048 89.1225Z" fill="#A39F94"/>
</svg>
