<svg width="16" height="16" viewBox="0 0 16 16" fill="none" xmlns="http://www.w3.org/2000/svg">
<g id="image">
<path id="Vector" d="M14.5272 1.50586H1.47281C0.676563 1.50586 0 2.14836 0 2.97867V13.0205C0 13.5212 0.245937 13.9537 0.61625 14.2184L6.16219 8.67242C6.34531 8.4893 6.64219 8.4893 6.82531 8.67242L8.50219 10.3493L12.1872 6.66398C12.2753 6.57617 12.3944 6.5268 12.5188 6.5268C12.6431 6.5268 12.7622 6.57617 12.8503 6.66398L16 9.81367V2.97867C16 2.14836 15.3234 1.50586 14.5272 1.50586ZM3.98344 7.4643C2.89438 7.4643 2.00844 6.57836 2.00844 5.4893C2.00844 4.40023 2.89438 3.5143 3.98344 3.5143C5.0725 3.5143 5.95844 4.40023 5.95844 5.4893C5.95844 6.57836 5.0725 7.4643 3.98344 7.4643ZM3.98344 4.4518C3.41125 4.4518 2.94594 4.91711 2.94594 5.4893C2.94594 6.06117 3.41125 6.5268 3.98344 6.5268C4.55531 6.5268 5.02094 6.06117 5.02094 5.4893C5.02094 4.91711 4.55531 4.4518 3.98344 4.4518ZM12.5188 7.65836L8.83344 11.3437C8.65063 11.5265 8.35375 11.5265 8.17062 11.3437L6.49375 9.6668L1.66719 14.4934H14.5272C15.3234 14.4934 16 13.8509 16 13.0205V11.1396L12.5188 7.65836Z" fill="white" fill-opacity="0.9"/>
</g>
</svg>
