<svg width="32" height="30" viewBox="0 0 32 30" fill="none" xmlns="http://www.w3.org/2000/svg">
<g id="Group">
<path id="Vector" d="M21 0.9375H11C9.10456 0.9375 7.5625 2.47956 7.5625 4.375V25.625C7.5625 27.5204 9.10456 29.0625 11 29.0625H21C22.8954 29.0625 24.4375 27.5204 24.4375 25.625V4.375C24.4375 2.47956 22.8954 0.9375 21 0.9375ZM22.5625 25.625C22.5625 26.4866 21.8616 27.1875 21 27.1875H11C10.1384 27.1875 9.4375 26.4866 9.4375 25.625V4.375C9.4375 3.51344 10.1384 2.8125 11 2.8125H21C21.8616 2.8125 22.5625 3.51344 22.5625 4.375V25.625Z" fill="#3C3C3C"/>
<path id="Vector_2" d="M17.25 23.4375H14.75C14.2322 23.4375 13.8125 23.8572 13.8125 24.375C13.8125 24.8928 14.2322 25.3125 14.75 25.3125H17.25C17.7678 25.3125 18.1875 24.8928 18.1875 24.375C18.1875 23.8572 17.7678 23.4375 17.25 23.4375Z" fill="#3C3C3C"/>
<path id="Vector_3" d="M17.25 4.6875H14.75C14.2322 4.6875 13.8125 5.10725 13.8125 5.625C13.8125 6.14275 14.2322 6.5625 14.75 6.5625H17.25C17.7678 6.5625 18.1875 6.14275 18.1875 5.625C18.1875 5.10725 17.7678 4.6875 17.25 4.6875Z" fill="#3C3C3C"/>
<path id="Vector_4" d="M30.6397 8.93203C30.395 8.47578 29.8267 8.30428 29.3705 8.54903C28.9142 8.79378 28.7427 9.36203 28.9874 9.81828V9.81834C29.7211 11.1861 30.1252 13.0261 30.1252 14.9993C30.1252 16.9725 29.7208 18.8131 28.9865 20.182V20.182C28.7418 20.6383 28.9133 21.2065 29.3695 21.4513H29.3696C29.8258 21.696 30.3941 21.5245 30.6388 21.0683C31.5167 19.4317 32.0002 17.2763 32.0002 14.9993C32.0002 12.7223 31.517 10.5675 30.6397 8.93203Z" fill="#3C3C3C"/>
<path id="Vector_5" d="M26.204 10.4475C25.7606 10.715 25.6181 11.2912 25.8856 11.7345C26.4028 12.5915 26.6876 13.7511 26.6876 14.9996C26.6876 16.2481 26.4026 17.408 25.885 18.2658C25.6175 18.7091 25.76 19.2853 26.2033 19.5528C26.6466 19.8204 27.2228 19.6778 27.4903 19.2345C28.1818 18.0886 28.5626 16.5846 28.5626 14.9996C28.5626 13.4146 28.1821 11.911 27.491 10.7658C27.2235 10.3225 26.6473 10.18 26.204 10.4475Z" fill="#3C3C3C"/>
<path id="Vector_6" d="M3.01363 20.1821C2.27938 18.8132 1.875 16.9726 1.875 14.9993C1.875 13.0261 2.27906 11.1862 3.01275 9.81834C3.2575 9.36209 3.086 8.79378 2.62975 8.54903C2.1735 8.30428 1.60519 8.47578 1.36044 8.93203C0.483125 10.5676 0 12.7223 0 14.9993C0 17.2763 0.483438 19.4317 1.36138 21.0683C1.60613 21.5246 2.17438 21.6961 2.63063 21.4513C3.08688 21.2067 3.25838 20.6383 3.01363 20.1821Z" fill="#3C3C3C"/>
<path id="Vector_7" d="M5.3125 14.9996C5.3125 13.7511 5.59731 12.5916 6.1145 11.7345C6.382 11.2912 6.2395 10.715 5.79619 10.4475C5.35287 10.18 4.77663 10.3225 4.50913 10.7658C3.81806 11.911 3.4375 13.4145 3.4375 14.9996C3.4375 16.5846 3.81831 18.0886 4.50981 19.2345C4.77731 19.6778 5.35356 19.8203 5.79687 19.5528C6.24019 19.2853 6.38269 18.7091 6.11519 18.2658C5.59756 17.408 5.3125 16.248 5.3125 14.9996Z" fill="#3C3C3C"/>
</g>
</svg>
