<svg width="24" height="24" viewBox="0 0 24 24" fill="none" xmlns="http://www.w3.org/2000/svg">
<g id="user" clip-path="url(#clip0_1145_2620)">
<path id="Vector" d="M21.2845 16.6136C21.2845 16.6136 15.2594 14.3541 15.2594 14.3541C15.0818 14.2875 14.9625 14.1154 14.9625 13.9257V12.532C16.3264 11.589 17.2219 10.0144 17.2219 8.23434V5.22188C17.2219 2.34253 14.8793 0 12 0C9.12066 0 6.77813 2.34253 6.77813 5.22188V8.23439C6.77813 10.0144 7.67358 11.589 9.0375 12.5321V13.9258C9.0375 14.1154 8.91825 14.2876 8.74069 14.3542C8.74069 14.3542 2.71556 16.6136 2.71552 16.6136C1.09125 17.2226 0 18.7972 0 20.5318V23.2969C0 23.6852 0.314812 24 0.703125 24H23.2969C23.6852 24 24 23.6852 24 23.2969V20.5318C24 18.7972 22.9088 17.2226 21.2845 16.6136ZM12 1.40625C13.6194 1.40625 15.0055 2.42081 15.5584 3.84731C15.381 3.79462 15.1976 3.76566 15.0125 3.76566C14.277 3.76566 13.614 4.01255 13.029 4.23038C12.6307 4.37864 12.2544 4.51875 12 4.51875C11.7456 4.51875 11.3693 4.37864 10.971 4.23033C10.386 4.0125 9.723 3.76561 8.98748 3.76561C8.80237 3.76561 8.619 3.79458 8.44153 3.84727C8.99452 2.42081 10.3806 1.40625 12 1.40625ZM8.18438 8.23439V5.97502C8.18438 5.60723 8.6197 5.17191 8.98748 5.17191C9.46969 5.17191 9.98344 5.3632 10.4803 5.54822C11.0007 5.742 11.4922 5.92505 12 5.92505C12.5077 5.92505 12.9992 5.742 13.5196 5.54822C14.0165 5.3632 14.5302 5.17191 15.0124 5.17191C15.3802 5.17191 15.8155 5.60723 15.8155 5.97502V8.23439C15.8155 10.3383 14.1038 12.05 11.9999 12.05C9.89597 12.05 8.18438 10.3383 8.18438 8.23439ZM14.2773 15.397C14.0937 16.488 13.1424 17.3219 12 17.3219C10.8576 17.3219 9.90623 16.488 9.72267 15.397C10.168 15.0493 10.4438 14.5078 10.4438 13.9258V13.2195C10.9355 13.3733 11.4582 13.4563 12 13.4563C12.5418 13.4563 13.0645 13.3733 13.5563 13.2195V13.9258C13.5563 14.5078 13.8321 15.0493 14.2773 15.397ZM1.40625 22.5938V20.5318C1.40625 19.6406 1.84008 18.8131 2.53594 18.297L3.82495 22.5938H1.40625ZM5.29313 22.5938L3.82486 17.6994L8.41266 15.979C8.83922 17.5606 10.2855 18.7282 12 18.7282C13.7145 18.7282 15.1608 17.5606 15.5873 15.979L20.1751 17.6994L18.7069 22.5938H5.29313ZM22.5938 22.5938H20.175L21.4641 18.297C22.1599 18.8131 22.5938 19.6406 22.5938 20.5318V22.5938Z" fill="#4F4F4F"/>
</g>
<defs>
<clipPath id="clip0_1145_2620">
<rect width="24" height="24" fill="white"/>
</clipPath>
</defs>
</svg>
