<svg width="33" height="32" viewBox="0 0 33 32" fill="none" xmlns="http://www.w3.org/2000/svg">
<g id="whatsapp" clip-path="url(#clip0_846_11575)">
<path id="Vector" d="M27.8008 4.69922C24.7705 1.66895 20.7571 0 16.5 0C7.68945 0 0.5 7.19043 0.5 16C0.5 18.6069 1.14014 21.1804 2.35474 23.4683L0.527588 30.8369C0.448486 31.1558 0.542236 31.4929 0.774658 31.7253C1.00562 31.9565 1.34229 32.052 1.66309 31.9724L9.03174 30.145C11.3196 31.3596 13.8931 32 16.5 32C20.7571 32 24.7705 30.3311 27.8008 27.3008C30.8311 24.2703 32.5 20.2571 32.5 16C32.5 11.7429 30.8311 7.72949 27.8008 4.69922ZM16.5 30.125C14.0879 30.125 11.709 29.5041 9.61987 28.3301C9.41186 28.2131 9.16699 28.1799 8.93481 28.2373L2.72192 29.7781L4.26245 23.5649C4.32007 23.3333 4.28686 23.0881 4.16992 22.8799C2.99561 20.791 2.375 18.4121 2.375 16C2.375 8.21142 8.71142 1.875 16.5 1.875C24.2886 1.875 30.625 8.21142 30.625 16C30.625 23.7886 24.2886 30.125 16.5 30.125Z" fill="#3C3C3C"/>
<path id="Vector_2" d="M24.9602 18.8468C24.3389 18.2252 23.6548 17.5978 22.8645 17.2167C21.6836 16.6476 20.5569 16.8106 19.6917 17.6759C19.2979 18.0697 18.7561 18.846 18.4444 19.2279C17.6402 19.0934 16.0335 17.7386 15.3955 17.1029C14.76 16.4649 13.4063 14.858 13.2718 14.0555C13.6514 13.7455 14.4305 13.2015 14.824 12.8082C15.6892 11.943 15.8523 10.816 15.2832 9.63536C14.9021 8.84483 14.2747 8.16099 13.6536 7.5399C12.3885 6.24815 10.4371 6.15293 8.75273 7.83751C7.49394 9.09605 6.3726 11.4293 8.17729 15.3978C9.24516 17.7455 10.9661 19.8219 11.8145 20.6788L11.8211 20.6854C12.678 21.534 14.7544 23.255 17.1021 24.3226C19.7535 25.5284 22.5953 25.8146 24.6626 23.7474C26.3724 22.0375 26.2283 20.0885 24.9602 18.8468ZM23.3367 22.4215C22.1158 23.6424 20.2793 23.7079 17.8782 22.6158C15.7703 21.6571 13.8616 20.0665 13.1436 19.3563C12.4334 18.638 10.8428 16.7296 9.88407 14.6217C8.79203 12.2206 8.85746 10.3841 10.0784 9.16319C10.7911 8.45054 11.6114 8.13438 12.314 8.85191L12.3274 8.86558C13.9917 10.5299 13.8736 11.1068 13.4981 11.4823C13.1648 11.8155 12.1797 12.4845 11.8614 12.8028C11.1141 13.5499 11.2532 14.7071 12.2747 16.242C12.8843 17.1583 13.6895 18.0475 14.0694 18.4283L14.0713 18.4305C14.4524 18.8104 15.3413 19.6156 16.2576 20.2252C17.7928 21.2467 18.9497 21.3856 19.6968 20.6385C20.0154 20.3199 20.6841 19.3351 21.0174 19.0018C21.2713 18.7479 21.5215 18.651 22.0501 18.9059C22.6629 19.2013 23.3189 19.8573 23.6343 20.1725L23.648 20.1859C24.3711 20.8941 24.0496 21.7086 23.3367 22.4215Z" fill="#3C3C3C"/>
</g>
<defs>
<clipPath id="clip0_846_11575">
<rect width="32" height="32" fill="white" transform="translate(0.5)"/>
</clipPath>
</defs>
</svg>
