<svg width="40" height="40" viewBox="0 0 40 40" fill="none" xmlns="http://www.w3.org/2000/svg">
<g id="Apple - Original" clip-path="url(#clip0_780_23417)">
<path id="path4" d="M36.3196 31.1726C35.7147 32.5701 34.9987 33.8565 34.1691 35.0392C33.0382 36.6515 32.1123 37.7675 31.3988 38.3872C30.2926 39.4045 29.1075 39.9255 27.8384 39.9551C26.9273 39.9551 25.8286 39.6958 24.5496 39.1699C23.2664 38.6465 22.0872 38.3872 21.009 38.3872C19.8782 38.3872 18.6654 38.6465 17.3681 39.1699C16.0689 39.6958 15.0223 39.9699 14.222 39.9971C13.005 40.0489 11.792 39.5131 10.5812 38.3872C9.80836 37.7132 8.84172 36.5577 7.68373 34.9207C6.4413 33.1726 5.41985 31.1455 4.61963 28.8344C3.76262 26.3382 3.33301 23.921 3.33301 21.5808C3.33301 18.9002 3.91225 16.5881 5.07246 14.6507C5.98428 13.0944 7.19733 11.8668 8.71555 10.9656C10.2338 10.0644 11.8742 9.60514 13.6408 9.57576C14.6075 9.57576 15.8751 9.87477 17.4503 10.4624C19.0211 11.052 20.0298 11.351 20.472 11.351C20.8026 11.351 21.923 11.0014 23.8225 10.3044C25.6187 9.65798 27.1347 9.39034 28.3766 9.49576C31.742 9.76736 34.2703 11.094 35.9517 13.484C32.9419 15.3077 31.4531 17.8619 31.4827 21.1386C31.5099 23.6909 32.4358 25.8148 34.2555 27.5011C35.0801 28.2838 36.0011 28.8888 37.0258 29.3184C36.8035 29.9628 36.569 30.5801 36.3196 31.1726ZM28.6013 0.800716C28.6013 2.80117 27.8705 4.66899 26.4138 6.39783C24.6558 8.45308 22.5294 9.6407 20.2236 9.4533C20.1942 9.2133 20.1772 8.96072 20.1772 8.69529C20.1772 6.77486 21.0132 4.71961 22.4978 3.03917C23.239 2.18833 24.1817 1.48087 25.3249 0.916514C26.4656 0.36058 27.5446 0.0531367 28.5594 0.000488281C28.589 0.267918 28.6013 0.535365 28.6013 0.80069V0.800716Z" fill="black"/>
</g>
<defs>
<clipPath id="clip0_780_23417">
<rect width="40" height="40" fill="white"/>
</clipPath>
</defs>
</svg>
