<svg width="24" height="24" viewBox="0 0 24 24" fill="none" xmlns="http://www.w3.org/2000/svg">
<g id="email" clip-path="url(#clip0_869_5505)">
<path id="Vector" d="M24 5.22131C24 4.0035 23.0092 3.0127 21.7914 3.0127H2.20862C0.991035 3.01274 0.000421877 4.00307 0 5.22169V5.22206V18.7783C0 20.0114 1.00088 20.9877 2.20937 20.9877H21.7906C23.0236 20.9877 24 19.9869 24 18.7783V5.22206C24 5.22197 24 5.22188 24 5.22178C24 5.22164 24 5.2215 24 5.22131ZM2.20862 4.419H21.7914C22.2338 4.419 22.5937 4.77895 22.5937 5.22248C22.5937 5.45817 22.4766 5.67694 22.2802 5.80782L12.4455 12.3645C12.1749 12.545 11.8252 12.545 11.5545 12.3645C11.5545 12.3645 1.71962 5.80767 1.7198 5.80782C1.71985 5.80786 1.71966 5.80772 1.71962 5.80767C1.5234 5.67694 1.40626 5.45817 1.40626 5.22131C1.40626 4.77891 1.76621 4.419 2.20862 4.419ZM21.7906 19.5814H2.20937C1.7716 19.5814 1.40626 19.2275 1.40626 18.7783V7.28893L10.7744 13.5345C11.1467 13.7827 11.5733 13.9068 12 13.9068C12.4267 13.9068 12.8534 13.7827 13.2256 13.5345L22.5937 7.28893V18.7784C22.5937 19.2161 22.2398 19.5814 21.7906 19.5814Z" fill="#4F4F4F"/>
</g>
<defs>
<clipPath id="clip0_869_5505">
<rect width="24" height="24" fill="white"/>
</clipPath>
</defs>
</svg>
