<svg width="24" height="25" viewBox="0 0 24 25" fill="none" xmlns="http://www.w3.org/2000/svg">
<g id="Frame 86">
<g id="back">
<g id="Group">
<path id="Vector" d="M1.44253 14.8933C1.54074 14.9092 1.64012 14.9166 1.73955 14.9153H18.6711L18.3019 15.087C17.941 15.2578 17.6127 15.4903 17.3317 15.7739L12.5836 20.5219C11.9583 21.1188 11.8532 22.0791 12.3347 22.7972C12.8949 23.5623 13.9694 23.7285 14.7346 23.1682C14.7965 23.1229 14.8552 23.0735 14.9104 23.0204L23.4964 14.4345C24.1674 13.7642 24.1679 12.677 23.4977 12.006C23.4973 12.0056 23.4968 12.0051 23.4964 12.0046L14.9104 3.41871C14.2389 2.74906 13.1517 2.75056 12.482 3.42209C12.4293 3.47495 12.38 3.53118 12.3347 3.59043C11.8532 4.30848 11.9583 5.26876 12.5836 5.8657L17.3231 10.6223C17.575 10.8745 17.8647 11.086 18.1817 11.2491L18.6968 11.4809H1.83405C0.956837 11.4483 0.187216 12.0611 0.022419 12.9233C-0.129391 13.8595 0.506399 14.7414 1.44253 14.8933Z" fill="#3C3C3C"/>
</g>
</g>
</g>
</svg>
