<svg width="20" height="20" viewBox="0 0 20 20" fill="none" xmlns="http://www.w3.org/2000/svg">
<g id="image">
<path id="Vector" d="M18.159 1.88281H1.84102C0.845703 1.88281 0 2.68594 0 3.72383V16.2762C0 16.902 0.307422 17.4426 0.770312 17.7734L7.70273 10.841C7.93164 10.6121 8.30273 10.6121 8.53164 10.841L10.6277 12.9371L15.234 8.33047C15.3441 8.2207 15.493 8.15899 15.6484 8.15899C15.8039 8.15899 15.9527 8.2207 16.0629 8.33047L20 12.2676V3.72383C20 2.68594 19.1543 1.88281 18.159 1.88281ZM4.9793 9.33086C3.61797 9.33086 2.51055 8.22344 2.51055 6.86211C2.51055 5.50078 3.61797 4.39336 4.9793 4.39336C6.34062 4.39336 7.44805 5.50078 7.44805 6.86211C7.44805 8.22344 6.34062 9.33086 4.9793 9.33086ZM4.9793 5.56523C4.26406 5.56523 3.68242 6.14688 3.68242 6.86211C3.68242 7.57695 4.26406 8.15899 4.9793 8.15899C5.69414 8.15899 6.27617 7.57695 6.27617 6.86211C6.27617 6.14688 5.69414 5.56523 4.9793 5.56523ZM15.6484 9.57344L11.0418 14.1801C10.8133 14.4086 10.4422 14.4086 10.2133 14.1801L8.11719 12.084L2.08398 18.1172H18.159C19.1543 18.1172 20 17.3141 20 16.2762V13.925L15.6484 9.57344Z" fill="#FBFBF9"/>
</g>
</svg>
