<svg width="24" height="24" viewBox="0 0 24 24" fill="none" xmlns="http://www.w3.org/2000/svg">
<g id="lock" clip-path="url(#clip0_930_2385)">
<g id="Vector">
<path d="M19.7344 11.3692V7.73438C19.7344 3.46964 16.2647 0 12 0C7.73527 0 4.26562 3.46964 4.26562 7.73438V11.3692C3.35864 12.3187 2.85938 13.5563 2.85938 14.8594C2.85938 19.8995 6.95986 24 12 24C17.0401 24 21.1406 19.8995 21.1406 14.8594C21.1406 13.5563 20.6414 12.3187 19.7344 11.3692ZM5.67188 7.73438C5.67188 4.24505 8.51067 1.40625 12 1.40625C15.4893 1.40625 18.3281 4.24505 18.3281 7.73438V10.3331C17.8849 10.1154 17.4119 9.96783 16.9219 9.8955V7.73438C16.9219 5.02045 14.7139 2.8125 12 2.8125C9.28608 2.8125 7.07812 5.02045 7.07812 7.73438V9.8955C6.58809 9.96783 6.11508 10.1154 5.67188 10.3331V7.73438ZM15.5156 7.73438V9.84375H8.48438V7.73438C8.48438 5.79586 10.0615 4.21875 12 4.21875C13.9385 4.21875 15.5156 5.79586 15.5156 7.73438ZM12 22.5938C7.73527 22.5938 4.26562 19.1241 4.26562 14.8594C4.26562 12.9029 5.87559 11.25 7.78125 11.25H16.2188C18.1244 11.25 19.7344 12.9029 19.7344 14.8594C19.7344 19.1241 16.2647 22.5938 12 22.5938Z" fill="#4F4F4F"/>
<path d="M12 12.75C10.8369 12.75 9.89062 13.6963 9.89062 14.8594C9.89062 15.776 10.4785 16.5576 11.2969 16.8478V20.4844C11.2969 20.8727 11.6117 21.1875 12 21.1875C12.3883 21.1875 12.7031 20.8727 12.7031 20.4844V16.8478C13.5215 16.5576 14.1094 15.776 14.1094 14.8594C14.1094 13.6963 13.1631 12.75 12 12.75ZM12 15.5625C11.6123 15.5625 11.2969 15.2471 11.2969 14.8594C11.2969 14.4717 11.6123 14.1562 12 14.1562C12.3877 14.1562 12.7031 14.4717 12.7031 14.8594C12.7031 15.2471 12.3877 15.5625 12 15.5625Z" fill="#4F4F4F"/>
</g>
</g>
<defs>
<clipPath id="clip0_930_2385">
<rect width="24" height="24" fill="white"/>
</clipPath>
</defs>
</svg>
