<svg width="24" height="24" viewBox="0 0 24 24" fill="none" xmlns="http://www.w3.org/2000/svg">
<g id="mobile" clip-path="url(#clip0_957_1344)">
<path id="Vector" d="M6.375 0C5.21191 0 4.26562 0.946289 4.26562 2.10938V21.8906C4.26562 23.0537 5.21191 24 6.375 24H17.625C18.7881 24 19.7344 23.0537 19.7344 21.8906V2.10938C19.7344 0.946289 18.7881 0 17.625 0H6.375ZM18.3281 18.375H5.67188V4.21875H18.3281V18.375ZM17.625 22.5938H6.375C5.98737 22.5938 5.67188 22.2783 5.67188 21.8906V19.7812H11.2969V20.4844C11.2969 20.8727 11.6116 21.1875 12 21.1875C12.3884 21.1875 12.7031 20.8727 12.7031 20.4844V19.7812H18.3281V21.8906C18.3281 22.2783 18.0126 22.5938 17.625 22.5938ZM18.3281 2.10938V2.8125H5.67188V2.10938C5.67188 1.72174 5.98737 1.40625 6.375 1.40625H17.625C18.0126 1.40625 18.3281 1.72174 18.3281 2.10938Z" fill="#4F4F4F"/>
</g>
<defs>
<clipPath id="clip0_957_1344">
<rect width="24" height="24" fill="white"/>
</clipPath>
</defs>
</svg>
